# xmcd
# 
# Track frame offsets:
#     150
#     38515
#     77461
#     89664
#     134931
#     165935
#     195837
#     199504
#     234226
#     270021
#     303035
#     326258
#     331490
# 
# Disc length: 4695
# 
# Revision: 2
# Processed by: cddbd v1.5.2PL0 Copyright (c) Steve Scherf et al.
# Submitted via: fre:ac v1.1beta1pre5
# 
DISCID=9212550d
DTITLE=Terry 'Harmonica' Bean With The Cornlickers - Rock This House Tonight Live at Right Coast
DYEAR=2010
DGENRE=Blues
TTITLE0=Old McDonald
TTITLE1=Hoochie Coohie
TTITLE2=Come On Baby
TTITLE3=Men Go Crazy
TTITLE4=Love Me
TTITLE5=Little Red Rooster
TTITLE6=Hey Pretty Baby
TTITLE7=So Long
TTITLE8=Who's Gonna Be Your Sweet Man
TTITLE9=Lookin' Good Tonight
TTITLE10=Who's Gonna Be Your Sweet Man
TTITLE11=Story 3 - Terry's Dad
TTITLE12=Lookin' Good Tonight
EXTD=
EXTT0=
EXTT1=
EXTT2=
EXTT3=
EXTT4=
EXTT5=
EXTT6=
EXTT7=
EXTT8=
EXTT9=
EXTT10=
EXTT11=
EXTT12=
PLAYORDER=
